<svg width="100%" height="100%" viewBox="0 0 332 196" fill="none" xmlns="http://www.w3.org/2000/svg" fit="" preserveAspectRatio="xMidYMid meet" focusable="false">
    <path d="M331.311 0.690186H139.137V123.535H331.311V0.690186Z" fill="white" stroke="#3C4043" stroke-miterlimit="10" stroke-linecap="round" stroke-linejoin="round"></path>
    <path d="M319.602 82.1268H149.469V113.873H319.602V82.1268Z" fill="white" stroke="#3C4043" stroke-miterlimit="10" stroke-linecap="round" stroke-linejoin="round" stroke-dasharray="2 3"></path>
    <path d="M327.867 9.66201L142.581 9.66199" stroke="#3C4043" stroke-miterlimit="10" stroke-linecap="round" stroke-linejoin="round"></path>
    <path d="M144.647 6.67365C145.408 6.67365 146.025 6.05568 146.025 5.29337C146.025 4.53106 145.408 3.91309 144.647 3.91309C143.887 3.91309 143.27 4.53106 143.27 5.29337C143.27 6.05568 143.887 6.67365 144.647 6.67365Z" stroke="#3C4043" stroke-miterlimit="10" stroke-linecap="round" stroke-linejoin="round"></path>
    <path d="M150.867 6.67365C151.628 6.67365 152.245 6.05568 152.245 5.29337C152.245 4.53106 151.628 3.91309 150.867 3.91309C150.106 3.91309 149.49 4.53106 149.49 5.29337C149.49 6.05568 150.106 6.67365 150.867 6.67365Z" stroke="#3C4043" stroke-miterlimit="10" stroke-linecap="round" stroke-linejoin="round"></path>
    <path d="M220.415 24.8451H148.78V71.0845H220.415V24.8451Z" fill="#F1F3F4" stroke="#F1F3F4" stroke-miterlimit="10" stroke-linecap="round" stroke-linejoin="round"></path>
    <path d="M319.602 24.8451H227.303V71.0845H319.602V24.8451Z" fill="#E8EAED" stroke="#E8EAED" stroke-miterlimit="10" stroke-linecap="round" stroke-linejoin="round"></path>
    <path d="M7.38892 81.4144H9.87885V38.9183L7.38892 81.4144Z" fill="#3C4043"></path>
    <path d="M64.582 38.9183H10.1265V81.4174H64.582V38.9183Z" fill="white" stroke="#3C4043" stroke-miterlimit="10" stroke-linecap="round" stroke-linejoin="round"></path>
    <path d="M28.9292 57.2817H19.9749V73.8451H28.9292V57.2817Z" fill="white" stroke="#3C4043" stroke-miterlimit="10" stroke-linecap="round" stroke-linejoin="round"></path>
    <path d="M41.3276 49.6902H33.062V73.8451H41.3276V49.6902Z" fill="#24C1E0" stroke="#24C1E0" stroke-miterlimit="10" stroke-linecap="round" stroke-linejoin="round"></path>
    <path d="M53.726 62.1127H45.4604V73.8451H53.726V62.1127Z" fill="white" stroke="#3C4043" stroke-miterlimit="10" stroke-linecap="round" stroke-linejoin="round"></path>
    <path d="M70.2349 81.4144H72.7248V38.9183L70.2349 81.4144Z" fill="#3C4043"></path>
    <path d="M127.256 38.9183H72.8003V81.4174H127.256V38.9183Z" fill="white" stroke="#3C4043" stroke-miterlimit="10" stroke-linecap="round" stroke-linejoin="round"></path>
    <path d="M95.3658 68.6775L115.564 50.1245" stroke="#4285F4" stroke-miterlimit="10" stroke-linecap="round" stroke-linejoin="round"></path>
    <path d="M81.4945 61.2903C82.7554 61.2903 83.7776 60.2661 83.7776 59.0028C83.7776 57.7394 82.7554 56.7152 81.4945 56.7152C80.2336 56.7152 79.2114 57.7394 79.2114 59.0028C79.2114 60.2661 80.2336 61.2903 81.4945 61.2903Z" fill="#4285F4" stroke="#4285F4" stroke-miterlimit="10" stroke-linecap="round" stroke-linejoin="round"></path>
    <path d="M92.8744 73.2526C94.1353 73.2526 95.1575 72.2284 95.1575 70.965C95.1575 69.7017 94.1353 68.6775 92.8744 68.6775C91.6135 68.6775 90.5913 69.7017 90.5913 70.965C90.5913 72.2284 91.6135 73.2526 92.8744 73.2526Z" fill="#4285F4" stroke="#4285F4" stroke-miterlimit="10" stroke-linecap="round" stroke-linejoin="round"></path>
    <path d="M118.054 50.1244C119.315 50.1244 120.337 49.1002 120.337 47.8369C120.337 46.5735 119.315 45.5493 118.054 45.5493C116.793 45.5493 115.771 46.5735 115.771 47.8369C115.771 49.1002 116.793 50.1244 118.054 50.1244Z" fill="#4285F4" stroke="#4285F4" stroke-miterlimit="10" stroke-linecap="round" stroke-linejoin="round"></path>
    <path d="M84.033 61.5463L90.2321 68.4477" stroke="#4285F4" stroke-miterlimit="10" stroke-linecap="round" stroke-linejoin="round"></path>
    <path d="M0.990723 81.4144L134.726 81.4386" stroke="#3C4043" stroke-miterlimit="10" stroke-linecap="round" stroke-linejoin="round"></path>
    <path d="M114.04 95.1953L168.496 95.1953L168.496 52.6962L114.04 52.6962L114.04 95.1953Z" fill="white" stroke="#3C4043" stroke-miterlimit="10" stroke-linecap="round" stroke-linejoin="round"></path>
    <path d="M132.249 66.9437L132.249 58.662L120.539 58.662L120.539 66.9437L132.249 66.9437Z" fill="#34A853" stroke="#34A853" stroke-miterlimit="10" stroke-linecap="round" stroke-linejoin="round"></path>
    <path d="M132.249 77.9859L132.249 69.7042L120.539 69.7042L120.539 77.9859L132.249 77.9859Z" fill="white" stroke="#3C4043" stroke-miterlimit="10" stroke-linecap="round" stroke-linejoin="round"></path>
    <path d="M146.714 66.9437L146.714 58.662L135.004 58.662L135.004 66.9437L146.714 66.9437Z" fill="white" stroke="#3C4043" stroke-miterlimit="10" stroke-linecap="round" stroke-linejoin="round"></path>
    <path d="M146.714 77.9859L146.714 69.7042L135.004 69.7042L135.004 77.9859L146.714 77.9859Z" fill="#8AB4F8" stroke="#8AB4F8" stroke-miterlimit="10" stroke-linecap="round" stroke-linejoin="round"></path>
    <path d="M132.249 89.0281L132.249 80.7465L120.539 80.7465L120.539 89.0281L132.249 89.0281Z" fill="white" stroke="#3C4043" stroke-miterlimit="10" stroke-linecap="round" stroke-linejoin="round"></path>
    <path d="M161.178 66.9437L161.178 58.662L149.469 58.662L149.469 66.9437L161.178 66.9437Z" fill="white" stroke="#3C4043" stroke-miterlimit="10" stroke-linecap="round" stroke-linejoin="round"></path>
    <path d="M138.824 135.55H76.0054V165.578H138.824V135.55Z" fill="white" stroke="#3C4043" stroke-miterlimit="10" stroke-linecap="round" stroke-linejoin="round"></path>
    <path d="M79.9004 152.604H112.943" stroke="#3C4043" stroke-miterlimit="10" stroke-linecap="round" stroke-linejoin="round"></path>
    <path d="M91.5711 156.662H79.9001" stroke="#3C4043" stroke-miterlimit="10" stroke-linecap="round" stroke-linejoin="round"></path>
    <path d="M100.681 181.439H37.8628V194.629H100.681V181.439Z" fill="white" stroke="#3C4043" stroke-miterlimit="10" stroke-linecap="round" stroke-linejoin="round"></path>
    <path d="M43.9473 189.939C44.9974 189.939 45.8487 189.086 45.8487 188.034C45.8487 186.982 44.9974 186.129 43.9473 186.129C42.8972 186.129 42.0459 186.982 42.0459 188.034C42.0459 189.086 42.8972 189.939 43.9473 189.939Z" fill="#FBBC04"></path>
    <path d="M52.5489 189.939C53.599 189.939 54.4503 189.086 54.4503 188.034C54.4503 186.982 53.599 186.129 52.5489 186.129C51.4987 186.129 50.6475 186.982 50.6475 188.034C50.6475 189.086 51.4987 189.939 52.5489 189.939Z" fill="#FBBC04"></path>
    <path d="M61.1504 189.939C62.2005 189.939 63.0518 189.086 63.0518 188.034C63.0518 186.982 62.2005 186.129 61.1504 186.129C60.1003 186.129 59.249 186.982 59.249 188.034C59.249 189.086 60.1003 189.939 61.1504 189.939Z" fill="#FBBC04"></path>
    <path d="M69.752 189.939C70.8021 189.939 71.6534 189.086 71.6534 188.034C71.6534 186.982 70.8021 186.129 69.752 186.129C68.7019 186.129 67.8506 186.982 67.8506 188.034C67.8506 189.086 68.7019 189.939 69.752 189.939Z" fill="#E8EAED" stroke="#E8EAED" stroke-miterlimit="10" stroke-linecap="round" stroke-linejoin="round"></path>
    <path d="M78.3565 189.939C79.4066 189.939 80.2579 189.086 80.2579 188.034C80.2579 186.982 79.4066 186.129 78.3565 186.129C77.3064 186.129 76.4551 186.982 76.4551 188.034C76.4551 189.086 77.3064 189.939 78.3565 189.939Z" fill="#E8EAED" stroke="#E8EAED" stroke-miterlimit="10" stroke-linecap="round" stroke-linejoin="round"></path>
    <path d="M26.7319 194.626H137.077" stroke="#3C4043" stroke-miterlimit="10" stroke-linecap="round" stroke-linejoin="round"></path>
    <path d="M128.94 194.375L125.409 169.34H121.633L127.597 194.629C127.796 195.479 129.061 195.24 128.94 194.375Z" fill="#81C995" stroke="#81C995" stroke-miterlimit="10" stroke-linecap="round" stroke-linejoin="round"></path>
    <path d="M85.5878 194.375L89.119 169.34H92.8947L86.9309 194.629C86.7287 195.479 85.4641 195.24 85.5878 194.375Z" fill="#81C995" stroke="#81C995" stroke-miterlimit="10" stroke-linecap="round" stroke-linejoin="round"></path>
    <path d="M140.864 169.34H73.6604C71.6986 169.34 70.1111 167.746 70.1111 165.784V165.651H144.417V165.784C144.417 167.746 142.826 169.34 140.864 169.34Z" fill="#3C4043" stroke="#3C4043" stroke-miterlimit="10" stroke-linecap="round" stroke-linejoin="round"></path>
    <path d="M255.223 76.0045V73.0803H304.913L255.223 76.0045Z" fill="#3C4043"></path>
    <path d="M305.137 30.3662H250.033V73.1549H305.137V30.3662Z" fill="#34A853" stroke="#34A853" stroke-linecap="round" stroke-linejoin="round"></path>
    <path d="M199.283 192.213C197.873 191.841 194.722 190.626 192.981 189.963C191.101 189.247 187.189 187.847 185.855 185.957C184.847 184.529 184.059 181.52 184.198 178.983C182.891 178.983 177.945 178.983 176.728 178.983C176.611 181.626 176.414 186.256 176.318 187.496C176.155 189.582 175.935 194.469 175.935 194.469L202.79 194.632C202.79 194.079 201.365 192.761 199.283 192.213Z" fill="white" stroke="#3C4043" stroke-miterlimit="10" stroke-linecap="round" stroke-linejoin="round"></path>
    <path d="M231.857 192.213C230.447 191.841 227.299 190.617 225.555 189.963C223.765 189.292 219.766 187.844 218.429 185.957C217.421 184.529 216.634 181.52 216.772 178.983C215.466 178.983 210.519 178.983 209.303 178.983C209.185 181.626 208.989 186.256 208.892 187.496C208.729 189.582 208.509 194.469 208.509 194.469L235.364 194.632C235.364 194.079 233.939 192.761 231.857 192.213Z" fill="white" stroke="#3C4043" stroke-miterlimit="10" stroke-linecap="round" stroke-linejoin="round"></path>
    <path d="M209.909 76.3855C208.4 76.821 205.485 77.2746 199.165 76.9117C194.62 76.6516 191.182 74.4925 187.738 73.1378C186.256 72.5541 184.922 72.4332 183.691 72.1338C182.082 74.9915 179.26 79.7573 175.986 86.9846C174.051 91.2545 172.099 98.5997 172.089 107.345C172.062 133.702 174.266 177.263 174.027 179.567C176.481 179.567 185.674 179.567 188.031 179.567C188.565 176.906 191.221 154.816 191.457 146.869C192 128.413 192.999 117.63 193.696 113.904C193.696 113.904 209.394 135.484 209.17 139.039C208.521 149.321 206.601 179.567 206.601 179.567C206.601 179.567 209.408 179.567 212.985 179.567C216.736 179.567 220.605 179.567 220.605 179.567C220.605 179.567 224.77 151.813 227.079 138.846C228.866 128.815 210.718 99.6037 210.522 92.1254C210.217 80.3409 210.081 81.3479 209.909 76.3855Z" fill="#D2E3FC" stroke="#D2E3FC" stroke-miterlimit="10" stroke-linecap="round" stroke-linejoin="round"></path>
    <path d="M210.015 79.219C209.979 78.5234 209.945 77.7402 209.906 76.6879C208.397 77.1233 205.482 77.5769 199.162 77.2141C194.617 76.954 191.179 74.7949 187.735 73.4401C186.253 72.8565 184.919 72.7355 183.688 72.4362C182.94 73.7667 181.738 75.696 180.422 78.1333C180.072 78.7835 180.036 78.8228 179.674 79.5455C181.796 81.2662 184.971 82.125 189.368 82.2581C199.346 82.5574 205.678 80.9729 210.048 79.7482C210.015 79.1736 210.045 79.8147 210.015 79.219Z" fill="#3C4043" stroke="#3C4043" stroke-miterlimit="10" stroke-linecap="round" stroke-linejoin="round"></path>
    <path d="M188.414 105.358C188.414 105.358 192.042 111.355 193.699 113.907C200.885 124.984 209.378 135.883 209.173 139.043" stroke="#3C4043" stroke-miterlimit="10" stroke-linecap="round" stroke-linejoin="round"></path>
    <path d="M206.601 179.57C206.601 179.57 217.029 179.57 220.605 179.57" stroke="#3C4043" stroke-miterlimit="10" stroke-linecap="round" stroke-linejoin="round"></path>
    <path d="M166.907 61.4289C163.177 58.9886 157.358 54.6159 157.247 54.1744C157.135 53.7329 157.081 49.7684 156.362 49.0487C155.644 48.329 151.563 48.5316 150.405 49.0306C149.692 49.336 148.376 52.6836 148.376 52.6836C148.376 52.6836 149.354 52.6926 150.284 52.6836C150.598 53.9506 151.15 55.8588 151.729 56.3305C152.614 57.0502 153.67 56.9716 154.047 57.3798C154.047 57.3798 161.728 65.7018 164.378 67.4709L166.907 61.4289Z" fill="#FBA089" stroke="#3C4043" stroke-miterlimit="10"></path>
    <path d="M150.018 51.5162C150.018 51.5162 150.118 52.0091 150.284 52.6805" stroke="#3C4043" stroke-miterlimit="10" stroke-linecap="round" stroke-linejoin="round"></path>
    <path d="M175.895 49.3874C173.279 53.9083 169.844 62.2999 169.844 62.2999L167.342 60.9935C167.342 60.9935 165.712 62.5176 164.677 66.3308C163.645 70.1441 162.993 71.7922 163.102 71.9554C163.21 72.1187 167.351 74.7708 171.528 74.7345C177.552 74.6801 180.528 66.7693 182.212 64.2654C183.896 61.7586 184.593 52.3872 184.485 52.2239C184.443 52.1604 184.234 43.0552 182.571 43.4332C178.627 44.3283 176.804 47.818 175.895 49.3874Z" fill="white" stroke="#3C4043" stroke-miterlimit="10" stroke-linecap="round" stroke-linejoin="round"></path>
    <path d="M235.94 54.7761L245.49 50.0526C245.49 50.0526 245.167 44.676 245.179 44.0167C245.191 43.3575 247.871 40.7539 248.752 40.4726C249.612 40.1974 251.574 40.4454 252.431 40.7871C253.771 41.3193 255.643 42.5229 255.531 43.3757C255.471 43.8353 252.941 44.2949 252.075 44.5913C251.134 44.9118 251.046 45.314 250.276 49.4357C249.962 51.111 248.785 52.2178 247.808 52.9919C245.924 54.4828 239.103 60.6335 239.103 60.6335L235.94 54.7761Z" fill="#FBA089" stroke="#3C4043" stroke-miterlimit="10"></path>
    <path d="M210.401 55.8406C210.401 55.8406 212.019 57.029 212.876 57.3344" stroke="#3C4043" stroke-miterlimit="10" stroke-linecap="round" stroke-linejoin="round"></path>
    <path d="M155.134 194.626H270.353" stroke="#3C4043" stroke-miterlimit="10" stroke-linecap="round" stroke-linejoin="round"></path>
    <path d="M207.619 76.827C207.555 76.8361 207.492 76.8421 207.425 76.8512C207.383 76.8572 207.341 76.8602 207.299 76.8663C207.223 76.8754 207.148 76.8814 207.069 76.8905C207.033 76.8935 207 76.8965 206.964 76.8996C206.855 76.9086 206.74 76.9207 206.626 76.9298C206.589 76.9328 206.553 76.9358 206.517 76.9389C206.429 76.9449 206.342 76.951 206.251 76.957C206.206 76.96 206.161 76.9631 206.119 76.9661C206.028 76.9721 205.934 76.9782 205.838 76.9842C205.796 76.9872 205.756 76.9903 205.714 76.9903C205.581 76.9963 205.443 77.0054 205.304 77.0084C205.28 77.0084 205.255 77.0114 205.228 77.0114C205.108 77.0175 204.987 77.0205 204.863 77.0235C204.815 77.0266 204.763 77.0266 204.712 77.0266C204.607 77.0296 204.498 77.0326 204.386 77.0356C204.335 77.0356 204.284 77.0387 204.232 77.0387C204.093 77.0417 203.955 77.0417 203.81 77.0447C203.786 77.0447 203.764 77.0447 203.74 77.0447C203.574 77.0447 203.405 77.0447 203.23 77.0447C203.179 77.0447 203.128 77.0447 203.076 77.0447C202.947 77.0447 202.817 77.0417 202.684 77.0417C202.624 77.0417 202.563 77.0417 202.503 77.0387C202.361 77.0356 202.216 77.0326 202.071 77.0296C202.023 77.0296 201.978 77.0266 201.929 77.0266C201.736 77.0235 201.54 77.0175 201.338 77.0114C201.296 77.0114 201.25 77.0084 201.208 77.0084C201.045 77.0024 200.879 76.9963 200.713 76.9903C200.647 76.9872 200.577 76.9842 200.511 76.9812C200.357 76.9752 200.2 76.9691 200.04 76.96C199.974 76.957 199.907 76.954 199.841 76.951C199.618 76.9389 199.391 76.9268 199.159 76.9147C196.838 76.7816 194.807 76.1526 192.914 75.3906C191.104 74.6588 189.419 73.806 187.732 73.1438C187.563 73.0772 187.397 73.0168 187.231 72.9623C187.177 72.9442 187.126 72.9291 187.071 72.9109C186.96 72.8746 186.848 72.8414 186.736 72.8081C186.676 72.79 186.619 72.7748 186.561 72.7597C186.453 72.7295 186.347 72.7023 186.241 72.6781C186.187 72.666 186.133 72.6509 186.078 72.6388C185.937 72.6055 185.795 72.5753 185.656 72.545C185.538 72.5208 185.42 72.4966 185.303 72.4724C185.285 72.4694 185.267 72.4664 185.251 72.4634C184.711 72.3575 184.192 72.2638 183.688 72.1428C183.32 72.796 182.771 73.7879 182.119 75.0096C182.052 75.1366 181.983 75.2636 181.913 75.3966C183.893 76.0135 187.898 77.0961 192.637 77.4771C199.427 78.0215 204.6 77.4106 207.685 76.824C207.664 76.8209 207.64 76.824 207.619 76.827Z" fill="#3C4043" stroke="#3C4043" stroke-miterlimit="10" stroke-linecap="round" stroke-linejoin="round"></path>
    <path d="M166.844 61.58L166.908 61.4288C166.793 61.3381 166.678 61.2444 166.563 61.1506L163.244 66.5878C163.678 66.9567 164.064 67.2621 164.378 67.4708L164.396 67.4284C164.487 67.0565 164.581 66.6906 164.677 66.3307C165.353 63.842 166.28 62.333 166.844 61.58Z" fill="#3C4043" stroke="#3C4043" stroke-miterlimit="10" stroke-linecap="round" stroke-linejoin="round"></path>
    <path d="M242.142 56.2307C241.427 53.9385 240.295 51.6584 239.188 50.6152C236.659 51.6252 233.39 53.8659 227.957 54.4375C226.518 54.5887 222.594 48.4379 219.368 44.1408C216.981 40.9626 214.663 39.3327 211.125 38.6402C207.347 37.9023 202.799 38.5676 201.863 38.9123C198.89 40.007 196.026 40.8084 190.186 40.7025C187.633 40.6572 182.405 47.8119 180.567 49.4812C180.567 49.4812 178.726 71.3325 179.091 76.2918C180.775 77.825 183.745 79.3944 194.683 80.6282C202.823 81.5475 209.822 79.9236 210.926 79.467C211.252 77.1234 211.648 69.7782 212.137 67.746C212.493 66.2613 213.504 63.6757 213.504 61.7888C213.504 59.8988 212.942 57.661 212.876 57.3375C214.065 58.9372 215.879 60.6911 218.366 62.699C221.532 65.2543 225.172 66.9598 229.267 66.6302C232.838 66.3429 238.62 65.1817 242.52 62.8351C242.9 60.3282 242.52 57.4463 242.142 56.2307Z" fill="white" stroke="#3C4043" stroke-miterlimit="10" stroke-linecap="round" stroke-linejoin="round"></path>
    <path d="M209.275 179.615C210.591 179.615 215.454 179.615 215.454 179.615C215.454 179.615 210.603 180.541 209.239 180.846L209.275 179.615Z" fill="#3C4043" stroke="#3C4043" stroke-miterlimit="10" stroke-linecap="round" stroke-linejoin="round"></path>
    <path d="M176.707 179.615C178.023 179.615 182.885 179.615 182.885 179.615C182.885 179.615 177.984 181.26 176.62 181.566L176.707 179.615Z" fill="#3C4043" stroke="#3C4043" stroke-miterlimit="10" stroke-linecap="round" stroke-linejoin="round"></path>
    <path d="M188.034 179.57C188.568 176.909 190.901 154.804 191.46 146.872C192.764 128.301 193.455 118.307 193.699 113.907" stroke="#3C4043" stroke-miterlimit="10" stroke-linecap="round" stroke-linejoin="round"></path>
    <path d="M211.12 55.3477L212.876 57.3344" stroke="#3C4043" stroke-miterlimit="10" stroke-linecap="round" stroke-linejoin="round"></path>
    <path d="M204.969 22.5858C204.193 20.856 203.061 19.2715 202.108 18.3008C202.237 18.6334 202.298 19.0628 202.298 19.2624C202.298 20.5083 202.494 23.6321 200.164 25.8093C200.164 25.8093 199.482 24.6663 198.821 24.6663C197.831 24.6663 197.463 25.3557 197.647 26.6016C197.831 27.8475 199.074 28.7698 199.074 28.7698C199.074 28.7698 200.686 31.446 201.009 35.093C201.115 36.2814 201.214 37.6634 201.241 39.1088C202.153 38.8125 202.669 38.6734 202.669 38.6734C202.092 36.729 202.482 33.6596 203.218 32.7373C203.87 31.9208 205.382 31.0287 206.073 30.0157C206.764 28.9996 206.167 25.262 204.969 22.5858Z" fill="#FBA089" stroke="#3C4043" stroke-miterlimit="10"></path>
    <path d="M200.164 25.8094C200.164 25.8094 199.482 24.6663 198.821 24.6663C197.831 24.6663 197.463 25.3558 197.647 26.6016C197.831 27.8475 199.074 28.7698 199.074 28.7698C199.074 28.7698 200.686 31.4461 201.009 35.093C201.332 38.7399 201.606 44.1831 199.949 47.7816C198.561 50.7996 196.542 53.1795 191.429 53.0887C186.317 52.998 181.527 51.3348 179.822 49.6293C178.307 48.1113 177.474 44.921 179.638 41.3224C181.802 37.7239 183.736 35.97 185.626 31.9995C187.515 28.029 188.62 24.0161 189.127 22.0324C189.634 20.0487 191.707 15.5248 196.771 15.5248C200.659 15.5248 202.298 18.3401 202.298 19.2624C202.298 20.5083 202.494 23.6321 200.164 25.8094Z" fill="#3C4043" stroke="#3C4043" stroke-miterlimit="10" stroke-linecap="round" stroke-linejoin="round"></path>
    <path d="M174.027 179.57C174.027 179.57 184.455 179.57 188.031 179.57" stroke="#3C4043" stroke-miterlimit="10" stroke-linecap="round" stroke-linejoin="round"></path>
    <path d="M250.723 191.581C255.287 190.227 257.484 187.856 257.484 186.162C257.484 183.413 255.262 183.498 253.628 183.678" stroke="#3C4043" stroke-miterlimit="10" stroke-linecap="round" stroke-linejoin="round"></path>
    <path d="M246.966 194.626C249.546 194.626 251.81 191.176 253.092 185.99H240.839C242.119 191.179 244.385 194.626 246.966 194.626Z" fill="#3C4043" stroke="#3C4043" stroke-miterlimit="10" stroke-linecap="round" stroke-linejoin="round"></path>
    <path d="M239.97 180.913C240.16 182.733 240.456 184.439 240.839 185.993H253.092C253.476 184.439 253.771 182.733 253.961 180.913H239.97Z" stroke="#3C4043" stroke-miterlimit="10" stroke-linecap="round" stroke-linejoin="round"></path>
    <path d="M242.532 149.744C242.532 149.744 249.154 153.452 249.154 159.911C249.154 165.279 244.114 165.956 244.114 169.824C244.114 172.572 247.038 172.769 247.038 178.729" stroke="#3C4043" stroke-miterlimit="10" stroke-linecap="round" stroke-linejoin="round"></path>
    <path d="M103.697 141.479H80.9004C80.3481 141.479 79.9004 141.927 79.9004 142.479V146.69C79.9004 147.242 80.3481 147.69 80.9004 147.69H103.697C104.249 147.69 104.697 147.242 104.697 146.69V142.479C104.697 141.927 104.249 141.479 103.697 141.479Z" fill="#3C4043"></path>
    <mask id="path-70-inside-1_4012_24214" fill="white">
    <path fill-rule="evenodd" clip-rule="evenodd" d="M263.12 51.7605C263.12 43.7563 269.596 37.2676 277.585 37.2676L277.585 43.4788C273.02 43.4788 269.32 47.1867 269.32 51.7605C269.32 56.3344 273.02 60.0422 277.585 60.0422C282.15 60.0422 285.851 56.3344 285.851 51.7605C285.851 51.5281 285.841 51.298 285.822 51.0704H292.034C292.044 51.2991 292.05 51.5292 292.05 51.7605C292.05 59.7648 285.574 66.2535 277.585 66.2535C269.596 66.2535 263.12 59.7648 263.12 51.7605Z"></path>
    </mask>
    <path fill-rule="evenodd" clip-rule="evenodd" d="M263.12 51.7605C263.12 43.7563 269.596 37.2676 277.585 37.2676L277.585 43.4788C273.02 43.4788 269.32 47.1867 269.32 51.7605C269.32 56.3344 273.02 60.0422 277.585 60.0422C282.15 60.0422 285.851 56.3344 285.851 51.7605C285.851 51.5281 285.841 51.298 285.822 51.0704H292.034C292.044 51.2991 292.05 51.5292 292.05 51.7605C292.05 59.7648 285.574 66.2535 277.585 66.2535C269.596 66.2535 263.12 59.7648 263.12 51.7605Z" fill="#34A853"></path>
    <path d="M277.585 37.2676L278.585 37.2676L278.585 36.2676H277.585V37.2676ZM277.585 43.4788V44.4788H278.585L278.585 43.4788L277.585 43.4788ZM285.822 51.0704V50.0704H284.737L284.826 51.1525L285.822 51.0704ZM292.034 51.0704L293.033 51.0237L292.988 50.0704H292.034V51.0704ZM277.585 36.2676C269.042 36.2676 262.12 43.2059 262.12 51.7605H264.12C264.12 44.3067 270.151 38.2676 277.585 38.2676V36.2676ZM278.585 43.4788L278.585 37.2676L276.585 37.2676L276.585 43.4788L278.585 43.4788ZM270.32 51.7605C270.32 47.7371 273.574 44.4788 277.585 44.4788V42.4788C272.466 42.4788 268.32 46.6362 268.32 51.7605H270.32ZM277.585 59.0422C273.574 59.0422 270.32 55.7839 270.32 51.7605H268.32C268.32 56.8848 272.466 61.0422 277.585 61.0422V59.0422ZM284.851 51.7605C284.851 55.7839 281.596 59.0422 277.585 59.0422V61.0422C282.704 61.0422 286.851 56.8848 286.851 51.7605H284.851ZM284.826 51.1525C284.842 51.3528 284.851 51.5555 284.851 51.7605H286.851C286.851 51.5007 286.84 51.2432 286.819 50.9883L284.826 51.1525ZM292.034 50.0704H285.822V52.0704H292.034V50.0704ZM293.05 51.7605C293.05 51.5136 293.044 51.2679 293.033 51.0237L291.035 51.1171C291.045 51.3303 291.05 51.5448 291.05 51.7605H293.05ZM277.585 67.2535C286.128 67.2535 293.05 60.3152 293.05 51.7605H291.05C291.05 59.2143 285.02 65.2535 277.585 65.2535V67.2535ZM262.12 51.7605C262.12 60.3152 269.042 67.2535 277.585 67.2535V65.2535C270.151 65.2535 264.12 59.2143 264.12 51.7605H262.12Z" fill="white" mask="url('/analytics/web/?authuser=4#path-70-inside-1_4012_24214')"></path>
    <mask id="path-72-inside-2_4012_24214" fill="white">
    <path fill-rule="evenodd" clip-rule="evenodd" d="M267.357 62.0087C261.708 56.3488 261.708 47.1724 267.357 41.5125L271.74 45.9046C268.513 49.1388 268.513 54.3825 271.74 57.6167C274.968 60.8509 280.202 60.8509 283.43 57.6167C286.658 54.3825 286.658 49.1388 283.43 45.9046C283.266 45.7402 283.096 45.5843 282.923 45.4366L287.315 41.036C287.484 41.1901 287.65 41.349 287.813 41.5125C293.462 47.1724 293.462 56.3488 287.813 62.0087C282.164 67.6685 273.006 67.6685 267.357 62.0087Z"></path>
    </mask>
    <path fill-rule="evenodd" clip-rule="evenodd" d="M267.357 62.0087C261.708 56.3488 261.708 47.1724 267.357 41.5125L271.74 45.9046C268.513 49.1388 268.513 54.3825 271.74 57.6167C274.968 60.8509 280.202 60.8509 283.43 57.6167C286.658 54.3825 286.658 49.1388 283.43 45.9046C283.266 45.7402 283.096 45.5843 282.923 45.4366L287.315 41.036C287.484 41.1901 287.65 41.349 287.813 41.5125C293.462 47.1724 293.462 56.3488 287.813 62.0087C282.164 67.6685 273.006 67.6685 267.357 62.0087Z" fill="#34A853"></path>
    <path d="M267.357 41.5125L268.065 40.8061L267.357 40.097L266.649 40.8061L267.357 41.5125ZM267.357 62.0087L268.065 61.3023L268.065 61.3023L267.357 62.0087ZM271.74 45.9046L272.448 46.611L273.153 45.9046L272.448 45.1982L271.74 45.9046ZM271.74 57.6167L271.033 58.3231L271.033 58.3231L271.74 57.6167ZM283.43 57.6167L282.722 56.9102L283.43 57.6167ZM283.43 45.9046L282.722 46.611L282.722 46.611L283.43 45.9046ZM282.923 45.4366L282.215 44.7302L281.449 45.4973L282.275 46.1988L282.923 45.4366ZM287.315 41.036L287.989 40.2972L287.282 39.6528L286.607 40.3295L287.315 41.036ZM287.813 41.5125L288.521 40.8061L288.521 40.8061L287.813 41.5125ZM287.813 62.0087L287.105 61.3023L287.105 61.3023L287.813 62.0087ZM266.649 40.8061C260.611 46.8563 260.611 56.6649 266.649 62.7151L268.065 61.3023C262.806 56.0328 262.806 47.4885 268.065 42.219L266.649 40.8061ZM272.448 45.1982L268.065 40.8061L266.649 42.219L271.033 46.611L272.448 45.1982ZM272.448 56.9102C269.61 54.0664 269.61 49.4548 272.448 46.611L271.033 45.1982C267.415 48.8227 267.415 54.6985 271.033 58.3231L272.448 56.9102ZM282.722 56.9102C279.885 59.753 275.285 59.753 272.448 56.9102L271.033 58.3231C274.651 61.9487 280.519 61.9487 284.138 58.3231L282.722 56.9102ZM282.722 46.611C285.56 49.4548 285.56 54.0664 282.722 56.9102L284.138 58.3231C287.755 54.6985 287.755 48.8227 284.138 45.1982L282.722 46.611ZM282.275 46.1988C282.428 46.3287 282.577 46.4661 282.722 46.611L284.138 45.1982C283.954 45.0144 283.765 44.8398 283.57 44.6744L282.275 46.1988ZM286.607 40.3295L282.215 44.7302L283.63 46.143L288.023 41.7424L286.607 40.3295ZM288.521 40.8061C288.347 40.6315 288.169 40.4618 287.989 40.2972L286.641 41.7747C286.798 41.9184 286.953 42.0664 287.105 42.219L288.521 40.8061ZM288.521 62.7151C294.559 56.6649 294.559 46.8563 288.521 40.8061L287.105 42.219C292.365 47.4885 292.365 56.0328 287.105 61.3023L288.521 62.7151ZM266.649 62.7151C272.689 68.7664 282.481 68.7664 288.521 62.7151L287.105 61.3023C281.847 66.5707 273.323 66.5707 268.065 61.3023L266.649 62.7151Z" fill="white" mask="url('/analytics/web/?authuser=4#path-72-inside-2_4012_24214')"></path>
  </svg>