<?xml version="1.0" encoding="UTF-8"?>
<svg version="1.1" xmlns="http://www.w3.org/2000/svg" width="352" height="99">
<path d="M0 0 C116.16 0 232.32 0 352 0 C352 32.67 352 65.34 352 99 C235.84 99 119.68 99 0 99 C0 66.33 0 33.66 0 0 Z " fill="#FCFCFC" transform="translate(0,0)"/>
<path d="M0 0 C0.9714949 -0.00852997 1.94298981 -0.01705994 2.94392395 -0.02584839 C4.54063431 -0.02448883 4.54063431 -0.02448883 6.16960144 -0.02310181 C7.8529232 -0.03317764 7.8529232 -0.03317764 9.57025146 -0.04345703 C13.29115695 -0.06250116 17.01188264 -0.06636462 20.73283386 -0.06851196 C23.31492183 -0.07493589 25.89700905 -0.08166394 28.47909546 -0.08868408 C33.89710995 -0.10067325 39.31505287 -0.10444878 44.733078 -0.10317993 C50.98895953 -0.10197929 57.2444956 -0.1230644 63.50028974 -0.15466726 C69.52364246 -0.18400831 75.5468082 -0.191155 81.57024193 -0.18996048 C84.13030596 -0.19232199 86.6903725 -0.20117627 89.25039101 -0.21662521 C92.83182566 -0.23621223 96.41237134 -0.23047462 99.99382019 -0.21841431 C101.05222107 -0.22965332 102.11062195 -0.24089233 103.20109558 -0.25247192 C110.23440527 -0.19226272 114.0634146 1.01014514 119.12654114 6.14402771 C120.65170973 8.96195884 120.65678131 11.04292356 120.66398621 14.24179077 C120.67344269 15.44661606 120.68289917 16.65144135 120.69264221 17.89277649 C120.68353317 19.83973167 120.68353317 19.83973167 120.67424011 21.82601929 C120.67626221 23.17596087 120.67917478 24.52590138 120.68293762 25.87583923 C120.68735616 28.70284441 120.68094647 31.52956484 120.66691589 34.35653687 C120.64984021 37.9725158 120.65965716 41.58782588 120.67763329 45.20378017 C120.68849813 47.9911346 120.68501223 50.77833171 120.67724991 53.56569099 C120.67428679 55.54484111 120.68336817 57.52399744 120.69264221 59.50312805 C120.67845749 61.31509422 120.67845749 61.31509422 120.66398621 63.16366577 C120.66159943 64.22415634 120.65921265 65.28464691 120.65675354 66.37727356 C120.05863569 70.915001 117.77139938 74.35442823 114.27580261 77.26742554 C111.39966947 78.22613659 109.57776838 78.39934862 106.58956909 78.41459656 C105.62648834 78.42175186 104.66340759 78.42890717 103.67114258 78.4362793 C102.61601974 78.4389682 101.56089691 78.4416571 100.47380066 78.44442749 C99.36133972 78.45099869 98.24887878 78.45756989 97.10270691 78.46434021 C93.41431107 78.48408182 89.72595595 78.49573699 86.03752136 78.50570679 C84.77901682 78.50978231 83.52051228 78.51385784 82.22387123 78.51805687 C76.25126437 78.53676845 70.27867047 78.55133431 64.30604142 78.55966884 C57.41793482 78.56944037 50.53014965 78.59576024 43.6421563 78.63616973 C37.67117122 78.6699942 31.70026471 78.68181589 25.72918129 78.68587303 C23.1914381 78.69074933 20.6536986 78.7023928 18.1160183 78.72091103 C14.56574667 78.74521066 11.01631717 78.74435384 7.46598816 78.73739624 C6.41693802 78.7502063 5.36788788 78.76301636 4.28704834 78.7762146 C-1.52985043 78.73463991 -5.24504497 78.37755695 -9.72419739 74.26742554 C-12.60356088 70.5754665 -13.10714928 67.82569495 -13.14411926 63.19540405 C-13.16798706 61.39312096 -13.16798706 61.39312096 -13.19233704 59.5544281 C-13.19253845 58.26475632 -13.19273987 56.97508453 -13.19294739 55.64633179 C-13.20005472 54.30021347 -13.20775456 52.95409816 -13.21601868 51.60798645 C-13.22944091 48.79117403 -13.23104252 45.97464178 -13.22517395 43.1578064 C-13.21927839 39.55846429 -13.24987082 35.96047135 -13.29029083 32.36139011 C-13.31621422 29.58255343 -13.31904121 26.80403972 -13.31539917 24.0250988 C-13.31790273 22.05644697 -13.34256571 20.08786336 -13.36763 18.11936951 C-13.29073132 8.1641102 -13.29073132 8.1641102 -10.37458801 4.5328064 C-6.72907305 1.41685823 -4.75472844 0.01886261 0 0 Z " fill="#010101" transform="translate(24.724197387695313,10.732574462890625)"/>
<path d="M0 0 C116.16 0 232.32 0 352 0 C352 32.67 352 65.34 352 99 C235.84 99 119.68 99 0 99 C0 66.33 0 33.66 0 0 Z M5 5 C5 34.7 5 64.4 5 95 C118.19 95 231.38 95 348 95 C348 65.3 348 35.6 348 5 C234.81 5 121.62 5 5 5 Z " fill="#020202" transform="translate(0,0)"/>
<path d="M0 0 C116.16 0 232.32 0 352 0 C352 32.67 352 65.34 352 99 C235.84 99 119.68 99 0 99 C0 66.33 0 33.66 0 0 Z M3 2 C3 33.68 3 65.36 3 98 C117.84 98 232.68 98 351 98 C351 66.32 351 34.64 351 2 C236.16 2 121.32 2 3 2 Z " fill="#F6F6F6" transform="translate(0,0)"/>
<path d="M0 0 C4.28575173 2.26892739 7.5624855 4.7812249 10 9 C10.92749911 14.62752269 10.22701728 19.21511231 7 24 C4.67479087 26.76118585 3.01210609 27.83466359 -0.55859375 28.41796875 C-5.11650872 28.64679216 -8.85546365 28.69777952 -12.5625 25.8125 C-16.41426489 21.3681559 -17.49212321 17.94952656 -17.3125 11.98828125 C-16.57263766 7.2809071 -13.68792045 4.5809106 -10.1875 1.625 C-6.35990051 -0.32632523 -4.24556929 -0.6065099 0 0 Z " fill="#F4F4F4" transform="translate(71,35)"/>
<path d="M0 0 C4.28612928 2.02659374 7.35455632 4.03183448 10 8 C10.74090337 12.87286447 11.16078586 17.89563053 8.7265625 22.30859375 C6.12797634 25.35717897 3.95790456 27.71723133 -0.13671875 28.30859375 C-5.09743834 28.55928861 -8.18750897 28.42919359 -12.0625 25.125 C-15.51514117 21.76172131 -16.18754616 19.56401113 -16.3125 14.75 C-16.25942496 9.68133379 -15.53995551 6.82697893 -12 3 C-8.06148374 -0.19339156 -5.0011791 -0.67812598 0 0 Z " fill="#080808" transform="translate(192,35)"/>
<path d="M0 0 C5.89527167 0.04193791 9.07590546 0.19040801 13.3125 4.3125 C13.93125 4.869375 14.55 5.42625 15.1875 6 C17.0029906 9.73184179 16.92895609 13.25073932 16.3125 17.3125 C15.0161496 20.94367505 13.2194576 23.61732751 10.12109375 25.9921875 C6.58677371 27.65366201 3.95196088 27.64386947 0.0625 27.5625 C-1.18015625 27.54703125 -2.4228125 27.5315625 -3.703125 27.515625 C-6.6875 27.3125 -6.6875 27.3125 -7.6875 26.3125 C-7.78709621 24.47090977 -7.81830411 22.62553033 -7.8203125 20.78125 C-7.82160156 19.66105469 -7.82289062 18.54085937 -7.82421875 17.38671875 C-7.82035156 16.20722656 -7.81648438 15.02773438 -7.8125 13.8125 C-7.81636719 12.63300781 -7.82023437 11.45351563 -7.82421875 10.23828125 C-7.82292969 9.11808594 -7.82164063 7.99789062 -7.8203125 6.84375 C-7.81918457 5.80798828 -7.81805664 4.77222656 -7.81689453 3.70507812 C-7.55535845 -1.13087197 -4.1483505 0.08236015 0 0 Z " fill="#F4F4F4" transform="translate(32.6875,35.6875)"/>
<path d="M0 0 C1.67542976 0.28604898 3.34385343 0.61781233 5 1 C4.43737174 7.21027647 2.99833221 12.62830173 0.9375 18.5 C0.65583984 19.32242188 0.37417969 20.14484375 0.08398438 20.9921875 C-0.60377243 22.99717343 -1.30091076 24.99893723 -2 27 C-3.65 27.33 -5.3 27.66 -7 28 C-7.26554687 27.39671875 -7.53109375 26.7934375 -7.8046875 26.171875 C-8.33449219 24.97304688 -8.33449219 24.97304688 -8.875 23.75 C-9.22304688 22.96109375 -9.57109375 22.1721875 -9.9296875 21.359375 C-10.90214201 19.21571615 -11.94729482 17.10541037 -13 15 C-14.32 18.96 -15.64 22.92 -17 27 C-18.65 27.33 -20.3 27.66 -22 28 C-23.35581219 24.67537544 -24.68342959 21.34035263 -26 18 C-26.3815625 17.04222656 -26.763125 16.08445312 -27.15625 15.09765625 C-30.56470322 6.22350482 -30.56470322 6.22350482 -30 1 C-28.02 1 -26.04 1 -24 1 C-23.49440092 2.43554025 -22.9957251 3.8735202 -22.5 5.3125 C-22.2215625 6.11300781 -21.943125 6.91351563 -21.65625 7.73828125 C-21 10 -21 10 -21 13 C-20.34 13 -19.68 13 -19 13 C-18.79503906 12.21753906 -18.59007812 11.43507813 -18.37890625 10.62890625 C-18.10949219 9.61699219 -17.84007812 8.60507812 -17.5625 7.5625 C-17.29566406 6.55316406 -17.02882813 5.54382812 -16.75390625 4.50390625 C-16 2 -16 2 -15 1 C-13.35 1 -11.7 1 -10 1 C-8.35 4.96 -6.7 8.92 -5 13 C-4.360625 11.040625 -3.72125 9.08125 -3.0625 7.0625 C-1.125 1.125 -1.125 1.125 0 0 Z " fill="#0A0A0A" transform="translate(286,35)"/>
<path d="M0 0 C0.66902344 -0.03738281 1.33804688 -0.07476562 2.02734375 -0.11328125 C5.8881028 -0.18154614 7.60412373 0.26472678 10.7109375 2.61328125 C12.82096873 5.47112048 13.35350876 6.4798016 13.125 9.9375 C13.09148437 10.68128906 13.05796875 11.42507812 13.0234375 12.19140625 C12.75 14.375 12.75 14.375 12.1640625 16.52734375 C11.52737172 18.45639422 11.52737172 18.45639422 12.75 20.375 C13.75 22.375 13.75 22.375 13.375 24.625 C13.065625 25.49125 13.065625 25.49125 12.75 26.375 C11.1 26.705 9.45 27.035 7.75 27.375 C7.37875 26.405625 7.0075 25.43625 6.625 24.4375 C5.03947638 21.06359031 5.03947638 21.06359031 1.5625 20.5 C0.1703125 20.438125 0.1703125 20.438125 -1.25 20.375 C-1.229375 21.344375 -1.20875 22.31375 -1.1875 23.3125 C-1.25 26.375 -1.25 26.375 -2.25 27.375 C-4.75 27.5 -4.75 27.5 -7.25 27.375 C-8.99545605 25.62954395 -8.3802316 23.21375783 -8.3828125 20.84375 C-8.38410156 19.72355469 -8.38539062 18.60335937 -8.38671875 17.44921875 C-8.38285156 16.26972656 -8.37898438 15.09023438 -8.375 13.875 C-8.37886719 12.69550781 -8.38273437 11.51601563 -8.38671875 10.30078125 C-8.38542969 9.18058594 -8.38414063 8.06039062 -8.3828125 6.90625 C-8.38168457 5.87048828 -8.38055664 4.83472656 -8.37939453 3.76757812 C-8.11160932 -1.18392194 -3.99843098 0.08283002 0 0 Z " fill="#F4F4F4" transform="translate(94.25,35.625)"/>
<path d="M0 0 C1.23234375 -0.02578125 2.4646875 -0.0515625 3.734375 -0.078125 C7.46167326 0.26975617 9.30051074 0.99964894 12.25 3.25 C13.41968953 5.58937907 13.38364221 7.02369368 13.375 9.625 C13.37886719 10.78128906 13.37886719 10.78128906 13.3828125 11.9609375 C13.25 14.25 13.25 14.25 12.68359375 16.3046875 C11.96986462 19.50682361 13.25394042 22.20322953 14.25 25.25 C13.59 25.91 12.93 26.57 12.25 27.25 C9.75 27.1875 9.75 27.1875 7.25 26.25 C6.940625 25.425 6.63125 24.6 6.3125 23.75 C5.961875 22.925 5.61125 22.1 5.25 21.25 C2.19727535 20.35169161 2.19727535 20.35169161 -0.75 20.25 C-0.729375 21.219375 -0.70875 22.18875 -0.6875 23.1875 C-0.75 26.25 -0.75 26.25 -1.75 27.25 C-4.25 27.375 -4.25 27.375 -6.75 27.25 C-8.49545605 25.50454395 -7.8802316 23.08875783 -7.8828125 20.71875 C-7.88410156 19.59855469 -7.88539063 18.47835937 -7.88671875 17.32421875 C-7.88285156 16.14472656 -7.87898438 14.96523438 -7.875 13.75 C-7.87886719 12.57050781 -7.88273437 11.39101563 -7.88671875 10.17578125 C-7.88542969 9.05558594 -7.88414062 7.93539062 -7.8828125 6.78125 C-7.88168457 5.74548828 -7.88055664 4.70972656 -7.87939453 3.64257812 C-7.61615813 -1.22481184 -4.15676785 0.051744 0 0 Z " fill="#0B0B0B" transform="translate(329.75,35.75)"/>
<path d="M0 0 C1.65 0 3.3 0 5 0 C10.95703125 11.9140625 10.95703125 11.9140625 12.0012207 14.01611328 C12.90197017 15.80528222 13.8394647 17.57583724 14.78125 19.34375 C16.19456306 22.4240477 16.02698563 23.82568078 15 27 C13.35 27 11.7 27 10 27 C9.34 25.02 8.68 23.04 8 21 C4.37 21 0.74 21 -3 21 C-3.66 22.98 -4.32 24.96 -5 27 C-6.98 26.67 -8.96 26.34 -11 26 C-10.52030851 19.85586646 -7.72290485 14.99657854 -4.9375 9.625 C-4.46505859 8.69816406 -3.99261719 7.77132812 -3.50585938 6.81640625 C-2.34442498 4.54046409 -1.17566933 2.26861227 0 0 Z " fill="#0F0F0F" transform="translate(304,36)"/>
<path d="M0 0 C2.5 1.5 2.5 1.5 4 3 C3.67 4.32 3.34 5.64 3 7 C-0.32534757 8.10844919 -2.62182575 7.84454356 -6 7 C-6 7.99 -6 8.98 -6 10 C-5.37351563 10.19335938 -4.74703125 10.38671875 -4.1015625 10.5859375 C-3.28429687 10.84632812 -2.46703125 11.10671875 -1.625 11.375 C-0.81289062 11.63023438 -0.00078125 11.88546875 0.8359375 12.1484375 C3 13 3 13 5 15 C5.56109143 18.05942484 5.51169103 20.93529733 5 24 C2.8496863 26.84396328 1.35034658 27.76802364 -2.16015625 28.37109375 C-6.37076996 28.60306412 -8.46127168 28.35182258 -12.0625 26 C-12.701875 25.34 -13.34125 24.68 -14 24 C-13.67 22.35 -13.34 20.7 -13 19 C-8.125 19.875 -8.125 19.875 -7 21 C-5.33382885 21.04063832 -3.66611905 21.042721 -2 21 C-1.67 20.01 -1.34 19.02 -1 18 C-2.216875 17.773125 -3.43375 17.54625 -4.6875 17.3125 C-8.99002205 16.21007442 -11.4169925 14.74952701 -14 11 C-14.14869483 6.76219739 -13.68320922 4.80742907 -10.9375 1.5625 C-6.86036211 -0.60619037 -4.59806306 -0.5108959 0 0 Z " fill="#0A0A0A" transform="translate(168,35)"/>
<path d="M0 0 C6.93 0 13.86 0 21 0 C21 1.98 21 3.96 21 6 C16.38 6 11.76 6 7 6 C7 7.32 7 8.64 7 10 C7.63808594 9.98839844 8.27617187 9.97679687 8.93359375 9.96484375 C9.75988281 9.95582031 10.58617187 9.94679688 11.4375 9.9375 C12.26121094 9.92589844 13.08492187 9.91429687 13.93359375 9.90234375 C16 10 16 10 17 11 C17.125 13.5 17.125 13.5 17 16 C16 17 16 17 13.93359375 17.09765625 C13.10988281 17.08605469 12.28617188 17.07445313 11.4375 17.0625 C10.61121094 17.05347656 9.78492188 17.04445313 8.93359375 17.03515625 C7.97646484 17.01775391 7.97646484 17.01775391 7 17 C7.01160156 17.63808594 7.02320313 18.27617188 7.03515625 18.93359375 C7.04417969 19.75988281 7.05320313 20.58617188 7.0625 21.4375 C7.07410156 22.26121094 7.08570313 23.08492187 7.09765625 23.93359375 C7 26 7 26 6 27 C3.5 27.125 3.5 27.125 1 27 C0 26 0 26 -0.11352539 23.49975586 C-0.10828857 22.41573486 -0.10305176 21.33171387 -0.09765625 20.21484375 C-0.09443359 19.04501953 -0.09121094 17.87519531 -0.08789062 16.66992188 C-0.07951172 15.43822266 -0.07113281 14.20652344 -0.0625 12.9375 C-0.05798828 11.70193359 -0.05347656 10.46636719 -0.04882812 9.19335938 C-0.03699618 6.12888587 -0.01906008 3.06443707 0 0 Z " fill="#080808" transform="translate(205,36)"/>
<path d="M0 0 C8.58 0 17.16 0 26 0 C26 1.65 26 3.3 26 5 C22.7 5 19.4 5 16 5 C16 11.93 16 18.86 16 26 C14.35 26.33 12.7 26.66 11 27 C10 26 10 26 9.88647461 23.95874023 C9.89171143 23.08419189 9.89694824 22.20964355 9.90234375 21.30859375 C9.90556641 20.36435547 9.90878906 19.42011719 9.91210938 18.44726562 C9.92048828 17.45404297 9.92886719 16.46082031 9.9375 15.4375 C9.94201172 14.44041016 9.94652344 13.44332031 9.95117188 12.41601562 C9.96299993 9.94395151 9.97948151 7.47200482 10 5 C7.03 5 4.06 5 1 5 C0.67 3.35 0.34 1.7 0 0 Z " fill="#030303" transform="translate(228,36)"/>
<path d="M0 0 C1.4540625 0.0309375 1.4540625 0.0309375 2.9375 0.0625 C2.96636537 4.37498609 2.98425255 8.68744762 3 13 C3.00837891 14.23169922 3.01675781 15.46339844 3.02539062 16.73242188 C3.02861328 17.90224609 3.03183594 19.07207031 3.03515625 20.27734375 C3.04039307 21.36136475 3.04562988 22.44538574 3.05102539 23.56225586 C2.9375 26.0625 2.9375 26.0625 1.9375 27.0625 C-0.5625 27.1875 -0.5625 27.1875 -3.0625 27.0625 C-4.80795605 25.31704395 -4.1927316 22.90125783 -4.1953125 20.53125 C-4.19660156 19.41105469 -4.19789062 18.29085937 -4.19921875 17.13671875 C-4.19535156 15.95722656 -4.19148438 14.77773438 -4.1875 13.5625 C-4.19136719 12.38300781 -4.19523437 11.20351563 -4.19921875 9.98828125 C-4.19792969 8.86808594 -4.19664063 7.74789062 -4.1953125 6.59375 C-4.19418457 5.55798828 -4.19305664 4.52222656 -4.19189453 3.45507812 C-3.99668237 -0.1545052 -3.68912471 0.07528826 0 0 Z " fill="#F1F1F1" transform="translate(129.0625,35.9375)"/>
<path d="M0 0 C3.05623277 2.09110663 3.86463014 3.29306849 4.5625 6.9375 C3.7998726 11.08958249 2.40406682 12.55795207 -1 15 C-4.55953149 15.07119063 -6.22119455 14.7009249 -8.875 12.3125 C-10.35810604 9.26389315 -10.48891657 7.35257076 -10 4 C-7.21921757 -0.06422047 -4.81255755 -0.80209293 0 0 Z " fill="#F5F5F5" transform="translate(192,42)"/>
<path d="M0 0 C3.375 0.9375 3.375 0.9375 5.375 3.9375 C5.80573122 7.8858695 5.98079756 10.06245909 3.6875 13.375 C1.375 14.9375 1.375 14.9375 -1.125 15.4375 C-4.53024375 14.75645125 -5.65047983 13.7895847 -7.625 10.9375 C-8.19145882 6.97228823 -8.20090314 4.85894502 -6.0625 1.4375 C-3.625 -0.0625 -3.625 -0.0625 0 0 Z " fill="#080808" transform="translate(68.625,42.0625)"/>
<path d="M0 0 C1.98 0 3.96 0 6 0 C6 8.58 6 17.16 6 26 C4.35 26.33 2.7 26.66 1 27 C0 26 0 26 -0.11352539 23.49975586 C-0.10828857 22.41573486 -0.10305176 21.33171387 -0.09765625 20.21484375 C-0.09443359 19.04501953 -0.09121094 17.87519531 -0.08789062 16.66992188 C-0.07951172 15.43822266 -0.07113281 14.20652344 -0.0625 12.9375 C-0.05798828 11.70193359 -0.05347656 10.46636719 -0.04882812 9.19335938 C-0.03699608 6.12885883 -0.02051173 3.06445279 0 0 Z " fill="#FDFDFD" transform="translate(113,36)"/>
<path d="M0 0 C6 0 6 0 8.375 1.5625 C10.5996142 4.8994213 10.50030235 7.06905293 10 11 C8.9375 12.9375 8.9375 12.9375 7 14 C4.69 14 2.38 14 0 14 C0 9.38 0 4.76 0 0 Z " fill="#070707" transform="translate(32,42)"/>
<path d="M0 0 C2.875 -0.125 2.875 -0.125 6 0 C6.66 0.66 7.32 1.32 8 2 C7.46428571 5.53571429 7.46428571 5.53571429 6 7 C4.00041636 7.04080783 1.99954746 7.04254356 0 7 C0 4.69 0 2.38 0 0 Z " fill="#EEEEEE" transform="translate(329,42)"/>
<path d="M0 0 C2.875 -0.125 2.875 -0.125 6 0 C6.66 0.66 7.32 1.32 8 2 C7.46428571 5.53571429 7.46428571 5.53571429 6 7 C4.00041636 7.04080783 1.99954746 7.04254356 0 7 C0 4.69 0 2.38 0 0 Z " fill="#141414" transform="translate(93,42)"/>
</svg>
